<svg width="30" height="30" viewBox="0 0 30 30" fill="none" xmlns="http://www.w3.org/2000/svg">
<g clip-path="url(#clip0_77_3182)">
<circle cx="15" cy="15" r="15" fill="#665CAC"/>
<g clip-path="url(#clip1_77_3182)">
<path d="M21.9222 7.75277C21.4824 7.34402 19.7011 6.03002 15.7342 6.01277C15.7342 6.01277 11.0533 5.72852 8.77304 7.85177C7.50469 9.13877 7.06047 11.0235 7.00947 13.3613C6.95847 15.699 6.90156 20.0805 11.0636 21.2715H11.0673L11.0636 23.0858C11.0636 23.0858 11.0363 23.8208 11.5123 23.9685C12.0873 24.1515 12.4273 23.592 12.9779 22.9905C13.2795 22.6598 13.6949 22.1753 14.0105 21.8055C15.8192 21.9755 17.6431 21.8343 19.4054 21.3878L19.2946 21.4118C19.8696 21.222 23.1233 20.7998 23.6495 16.419C24.1994 11.8965 23.3879 9.04352 21.9222 7.75277ZM22.4041 16.089C21.9554 19.7453 19.3197 19.9778 18.8348 20.1353C17.7764 20.4083 16.5613 20.5643 15.3099 20.5643C14.9507 20.5643 14.5944 20.5515 14.2419 20.526L14.2892 20.529C14.2892 20.529 12.4872 22.7333 11.9262 23.3063C11.7429 23.4923 11.5411 23.4773 11.5448 23.106C11.5448 22.8638 11.5588 20.0925 11.5588 20.0925C8.03538 19.101 8.23938 15.369 8.28077 13.4198C8.32217 11.4705 8.68286 9.86852 9.75682 8.79302C11.6874 7.01777 15.6617 7.28102 15.6617 7.28102C19.0196 7.29527 20.6272 8.32202 21.0012 8.66627C22.2385 9.74252 22.869 12.3173 22.4041 16.089ZM17.5916 13.248V13.2585C17.59 13.3169 17.5664 13.3725 17.5257 13.4138C17.4849 13.455 17.4301 13.4788 17.3725 13.4803C17.315 13.4817 17.2591 13.4607 17.2163 13.4215C17.1736 13.3823 17.1473 13.328 17.1429 13.2698C17.158 13.1132 17.1394 12.9544 17.0884 12.8058C17.0374 12.6572 16.9552 12.5217 16.8476 12.4084C16.7399 12.2952 16.6093 12.207 16.4648 12.15C16.3203 12.0929 16.1654 12.0684 16.0106 12.078H16.0136C15.9561 12.0735 15.9026 12.0468 15.864 12.0034C15.8254 11.9599 15.8048 11.9031 15.8063 11.8447C15.8078 11.7863 15.8314 11.7306 15.8722 11.6893C15.9129 11.648 15.9678 11.6242 16.0254 11.6228H16.0379H16.0372L16.0882 11.622C16.2946 11.622 16.4987 11.6649 16.688 11.7483C16.8773 11.8316 17.0477 11.9536 17.1886 12.1065C17.3295 12.2595 17.438 12.4402 17.5072 12.6375C17.5764 12.8348 17.6048 13.0444 17.5909 13.2533V13.2488L17.5916 13.248ZM18.2945 13.6463C18.3293 12.1553 17.4113 10.9883 15.6684 10.8578C15.6381 10.8568 15.6084 10.8497 15.581 10.8368C15.5535 10.8239 15.5289 10.8055 15.5086 10.7827C15.4883 10.7599 15.4728 10.7332 15.463 10.7041C15.4531 10.6751 15.4491 10.6444 15.4513 10.6137C15.4534 10.5831 15.4616 10.5533 15.4754 10.5259C15.4892 10.4986 15.5083 10.4744 15.5316 10.4547C15.5548 10.4351 15.5817 10.4204 15.6107 10.4115C15.6397 10.4027 15.6701 10.3999 15.7002 10.4033H15.6994H15.712C16.1256 10.4033 16.5349 10.489 16.9146 10.6553C17.2944 10.8216 17.6366 11.065 17.9204 11.3703C18.2041 11.6757 18.4233 12.0367 18.5645 12.4312C18.7058 12.8257 18.7661 13.2453 18.7417 13.6643L18.7424 13.656C18.7385 13.7141 18.7127 13.7685 18.6705 13.808C18.6283 13.8475 18.5727 13.869 18.5153 13.8683C18.4579 13.8675 18.4029 13.8445 18.3617 13.8039C18.3205 13.7633 18.2962 13.7082 18.2938 13.65V13.644L18.2945 13.6463ZM19.9206 14.118V14.1195C19.9176 14.1777 19.8928 14.2324 19.8513 14.2726C19.8098 14.3128 19.7547 14.3353 19.6973 14.3356C19.64 14.3359 19.5846 14.3139 19.5427 14.2742C19.5008 14.2344 19.4755 14.1799 19.4719 14.1218C19.4542 11.2553 17.5702 9.69452 15.287 9.67802C15.2576 9.67802 15.2285 9.67214 15.2013 9.66072C15.1741 9.6493 15.1494 9.63256 15.1286 9.61146C15.1078 9.59036 15.0913 9.56531 15.0801 9.53774C15.0688 9.51016 15.063 9.48061 15.063 9.45077C15.063 9.42093 15.0688 9.39138 15.0801 9.36381C15.0913 9.33623 15.1078 9.31118 15.1286 9.29008C15.1494 9.26898 15.1741 9.25224 15.2013 9.24082C15.2285 9.2294 15.2576 9.22352 15.287 9.22352C17.8436 9.24152 19.8984 11.0318 19.9191 14.1173L19.9206 14.118ZM19.5326 17.5665V17.5733C19.1586 18.2415 18.4586 18.9795 17.7379 18.744L17.7313 18.7335C16.4465 18.2538 15.2421 17.5761 14.1606 16.7243L14.1909 16.7468C13.6527 16.3132 13.1645 15.8193 12.7355 15.2745L12.7215 15.2558C12.3331 14.7596 11.9864 14.2313 11.6852 13.6763L11.6556 13.617C11.2993 13.0209 11.0038 12.3893 10.7739 11.7323L10.7517 11.6588C10.5196 10.9275 11.2432 10.2173 11.9055 9.83777H11.9121C12.0424 9.75314 12.1989 9.7202 12.3516 9.74525C12.5043 9.77029 12.6426 9.85156 12.7399 9.97352L12.7407 9.97502C12.7407 9.97502 13.1701 10.4948 13.3542 10.752C13.5271 10.9913 13.7599 11.3745 13.8804 11.5883C13.9711 11.7343 14.0081 11.9082 13.9847 12.0792C13.9613 12.2502 13.8791 12.4073 13.7526 12.5228L13.7518 12.5235L13.3364 12.861C13.2717 12.9245 13.2216 13.0017 13.1899 13.0872C13.1582 13.1727 13.1456 13.2642 13.1531 13.3553V13.353C13.3588 14.0485 13.73 14.6819 14.234 15.1974C14.7381 15.7129 15.3594 16.0946 16.0431 16.3088L16.0742 16.317C16.1634 16.3242 16.2532 16.3113 16.337 16.2792C16.4208 16.2472 16.4966 16.1969 16.559 16.1318L16.8916 15.7103C17.0059 15.5813 17.1615 15.4977 17.3308 15.4742C17.5001 15.4507 17.6721 15.4889 17.8163 15.582L17.8133 15.5805C18.4143 15.9278 18.9339 16.3095 19.4076 16.7423L19.3995 16.7348C19.5197 16.832 19.5997 16.9714 19.6238 17.1254C19.6478 17.2795 19.6142 17.4371 19.5296 17.5673L19.5311 17.565L19.5326 17.5665Z" fill="white"/>
</g>
</g>
<defs>
<clipPath id="clip0_77_3182">
<rect width="30" height="30" fill="white"/>
</clipPath>
<clipPath id="clip1_77_3182">
<rect width="17" height="18" fill="white" transform="translate(7 6)"/>
</clipPath>
</defs>
</svg>
