<svg width="42" height="11" viewBox="0 0 42 11" fill="none" xmlns="http://www.w3.org/2000/svg">
<path d="M1 4.85C0.641015 4.85 0.35 5.14101 0.35 5.5C0.35 5.85899 0.641015 6.15 1 6.15V4.85ZM41.4596 5.95962C41.7135 5.70578 41.7135 5.29422 41.4596 5.04038L37.323 0.903806C37.0692 0.649965 36.6576 0.649965 36.4038 0.903806C36.15 1.15765 36.15 1.5692 36.4038 1.82304L40.0808 5.5L36.4038 9.17696C36.15 9.4308 36.15 9.84235 36.4038 10.0962C36.6576 10.35 37.0692 10.35 37.323 10.0962L41.4596 5.95962ZM1 6.15H41V4.85H1V6.15Z" fill="#02B428"/>
</svg>
