<svg width="26" height="26" viewBox="0 0 26 26" fill="none" xmlns="http://www.w3.org/2000/svg">
<path d="M11.6673 19.825C10.0539 19.825 8.4767 19.3466 7.13521 18.4502C5.79371 17.5539 4.74814 16.2798 4.13072 14.7893C3.5133 13.2987 3.35175 11.6585 3.66651 10.0761C3.98127 8.49366 4.7582 7.04014 5.89905 5.89929C7.03989 4.75844 8.49342 3.98152 10.0758 3.66676C11.6582 3.352 13.2984 3.51354 14.789 4.13097C16.2796 4.74839 17.5536 5.79396 18.45 7.13545C19.3463 8.47694 19.8248 10.0541 19.8248 11.6675C19.8248 12.7388 19.6138 13.7995 19.2038 14.7893C18.7939 15.779 18.193 16.6782 17.4355 17.4357C16.678 18.1932 15.7787 18.7941 14.789 19.2041C13.7993 19.614 12.7385 19.825 11.6673 19.825ZM11.6673 5.14585C10.3817 5.14585 9.12498 5.52707 8.05606 6.24129C6.98714 6.95552 6.15402 7.97068 5.66205 9.1584C5.17008 10.3461 5.04136 11.6531 5.29216 12.9139C5.54297 14.1748 6.16203 15.333 7.07108 16.242C7.98012 17.1511 9.13831 17.7701 10.3992 18.021C11.6601 18.2718 12.967 18.143 14.1547 17.6511C15.3424 17.1591 16.3576 16.326 17.0718 15.2571C17.7861 14.1881 18.1673 12.9314 18.1673 11.6458C18.1673 9.92194 17.4825 8.26864 16.2635 7.04965C15.0445 5.83067 13.3912 5.14585 11.6673 5.14585Z" fill="#121212"/>
<path d="M21.6668 22.4792C21.56 22.4797 21.4543 22.4588 21.3557 22.4179C21.2571 22.377 21.1676 22.3168 21.0926 22.2408L16.6185 17.7667C16.4749 17.6126 16.3968 17.4089 16.4005 17.1984C16.4042 16.9879 16.4895 16.7871 16.6384 16.6382C16.7872 16.4894 16.9881 16.4041 17.1986 16.4004C17.4091 16.3967 17.6128 16.4748 17.7668 16.6183L22.241 21.0925C22.3931 21.2448 22.4786 21.4514 22.4786 21.6667C22.4786 21.882 22.3931 22.0885 22.241 22.2408C22.1659 22.3168 22.0765 22.377 21.9779 22.4179C21.8793 22.4588 21.7735 22.4797 21.6668 22.4792Z" fill="#121212"/>
</svg>
