<svg width="30" height="30" viewBox="0 0 30 30" fill="none" xmlns="http://www.w3.org/2000/svg">
<g clip-path="url(#clip0_77_3189)">
<circle cx="13.5" cy="16.5" r="12.5" fill="white"/>
<path d="M13.5308 0.7696C13.437 0.781319 13.103 0.822334 12.7983 0.857491C10.2495 1.1446 7.70654 2.21101 5.53271 3.89265C4.88818 4.39069 3.6167 5.66218 3.11865 6.30671C1.48975 8.40437 0.51123 10.7012 0.101074 13.3731C-0.0336914 14.252 -0.0336914 16.5137 0.101074 17.3926C0.452637 19.6661 1.21436 21.6641 2.42139 23.4688C4.82959 27.0782 8.41553 29.2989 12.8276 29.9259C13.6187 30.0372 15.7749 30.0196 16.6362 29.8966C18.8218 29.5743 20.9194 28.7716 22.7007 27.5821C26.3159 25.1622 28.5366 21.5762 29.1577 17.17C29.2573 16.4844 29.2573 14.2813 29.1577 13.5958C28.6245 9.80476 26.8667 6.56452 24.0776 4.20905C21.9858 2.43952 19.3784 1.26765 16.6655 0.880928C16.0327 0.787178 13.9292 0.711006 13.5308 0.7696ZM15.7866 6.06647C19.8647 6.48835 23.0347 9.32429 23.9077 13.3321C23.9956 13.7305 24.019 14.0821 24.019 15.0899C24.019 16.1973 24.0015 16.4259 23.8843 16.9591C23.4741 18.7755 22.6948 20.1993 21.3882 21.5118C20.064 22.8301 18.5288 23.6622 16.6421 24.0665C16.1382 24.1778 15.8628 24.1954 14.8198 24.1954C13.7651 24.1954 13.5073 24.1778 12.9917 24.0665C12.2769 23.9083 11.4155 23.627 10.7827 23.3341L10.3198 23.1173L7.78271 23.92C6.38232 24.3594 5.22803 24.7051 5.21045 24.6876C5.19287 24.6759 5.55615 23.586 6.01318 22.2794L6.83936 19.8946L6.48193 19.1446C5.80811 17.7325 5.56201 16.6661 5.56787 15.1485C5.56787 13.9473 5.66162 13.3438 6.00146 12.3301C6.79834 9.93952 8.4917 8.02937 10.7769 6.93952C12.3354 6.19538 14.0933 5.89069 15.7866 6.06647Z" fill="#29A71A"/>
<path d="M13.5604 7.49617C10.994 7.95906 8.94322 9.4532 7.8065 11.6798C6.60533 14.0411 6.74009 16.9005 8.16392 19.1153C8.32798 19.3731 8.46275 19.6134 8.46275 19.6485C8.46275 19.6837 8.26353 20.3223 8.01744 21.0665C7.7772 21.8165 7.58384 22.4376 7.59556 22.4493C7.60728 22.461 8.28111 22.2618 9.08384 22.0157L10.5545 21.5587L11.1346 21.8692C11.7967 22.2208 12.7049 22.5372 13.4725 22.6837C14.2225 22.8302 15.5702 22.8184 16.3495 22.6602C19.4725 22.0333 21.91 19.6485 22.5194 16.6251C22.6893 15.793 22.7245 15.1427 22.6424 14.4454C22.2499 11.0294 19.8534 8.3575 16.4901 7.5782C15.8338 7.43172 14.1991 7.38484 13.5604 7.49617ZM12.2069 11.1348C12.2362 11.17 12.4764 11.6915 12.7401 12.3067C13.1092 13.1739 13.203 13.4434 13.162 13.5372C13.1327 13.6016 12.9217 13.8712 12.6874 14.1407C12.4588 14.4044 12.2713 14.6446 12.2713 14.668C12.2713 14.7618 12.6874 15.4063 12.992 15.7755C13.1561 15.9864 13.4842 16.3145 13.7069 16.5079C14.369 17.0704 15.6639 17.7794 15.8924 17.6973C15.9452 17.6798 16.1737 17.4278 16.3905 17.1348C17.0116 16.3262 16.8885 16.3438 18.1131 16.9063C19.4139 17.4981 19.4198 17.504 19.4198 17.7442C19.4139 18.5059 18.8983 19.3028 18.1893 19.6251C17.287 20.0352 16.2147 19.8712 14.6444 19.0977C13.742 18.6466 13.0038 18.1075 12.1835 17.2872C11.3221 16.4317 10.7772 15.7169 10.3963 14.9434C10.0155 14.1817 9.91001 13.754 9.93931 13.0743C9.95103 12.6231 9.98619 12.4825 10.1385 12.1602C10.326 11.7677 10.7245 11.2696 10.9471 11.1524C11.0116 11.1173 11.1463 11.0704 11.2401 11.0528C11.4627 11.0059 12.1366 11.0645 12.2069 11.1348Z" fill="#29A71A"/>
</g>
<defs>
<clipPath id="clip0_77_3189">
<rect width="30" height="30" fill="white"/>
</clipPath>
</defs>
</svg>
